# xmcd
#
# Track frame offsets: 
#        150
#        31991
#        49302
#        87058
#        102262
#        129195
#        174067
#        226463
#        240206
#        256589
#        283873
#
# Disc length: 4180 seconds
#
# Revision: 0
# Processed by: cddbd v1.5.2PL0 Copyright (c) Steve Scherf et al.
# Submitted via: ExactAudioCopyFreeDBPlugin 1.0
#
DISCID=7c10520b
DTITLE=Terry Quiett Band - Kickstarter Live
DYEAR=2014
DGENRE=Blues
TTITLE0=Cut the Rope
TTITLE1=Paradise
TTITLE2=Take Me to the River
TTITLE3=You're My Kind
TTITLE4=A Fool Should Know
TTITLE5=Satisfied_Drum Solo
TTITLE6=Karma
TTITLE7=Come the Morning
TTITLE8=Big Man Boogie
TTITLE9=Nothing at All
TTITLE10=Weak Minded Man
EXTD=
EXTT0=
EXTT1=
EXTT2=
EXTT3=
EXTT4=
EXTT5=
EXTT6=
EXTT7=
EXTT8=
EXTT9=
EXTT10=
PLAYORDER=
